# 3ds Max Wavefront OBJ Exporter v0.97b - (c)2007 guruware
# File Created: 05.12.2017 11:02:29

#
# object MicroscopeSlide03
#

v  5.9500 0.0000 -1.7500
v  5.9500 0.0000 1.7500
v  -5.9500 0.0000 1.7500
v  -5.9500 0.0000 -1.7500
v  5.9500 0.1750 1.7500
v  -5.9500 0.1750 1.7500
v  5.9500 0.1750 -1.7500
v  -5.9500 0.1750 -1.7500
v  1.4000 0.1004 -1.4000
v  -1.4000 0.1004 -1.4000
v  -1.4000 0.1004 1.4000
v  1.4000 0.1004 1.4000
v  1.5400 0.1750 1.5400
v  -1.5400 0.1750 1.5400
v  1.5400 0.1750 -1.5400
v  -1.5400 0.1750 -1.5400
# 16 vertices

vn 0.0000 -1.0000 -0.0000
vn 0.0000 0.0000 1.0000
vn 1.0000 0.0000 -0.0000
vn 0.0000 0.0000 -1.0000
vn -1.0000 0.0000 -0.0000
vn 0.0000 1.0000 -0.0000
vn 0.0000 0.8826 -0.4701
vn -0.4701 0.8826 -0.0000
vn 0.0000 0.8826 0.4701
vn 0.4701 0.8826 -0.0000
# 10 vertex normals

vt 0.0067 0.5983 0.0000
vt 0.0067 0.3096 0.0000
vt 0.9881 0.3096 0.0000
vt 0.9881 0.5983 0.0000
vt 0.0144 0.6648 0.0000
vt 0.9958 0.6648 0.0000
vt 0.9958 0.6793 0.0000
vt 0.0144 0.6793 0.0000
vt 0.0638 0.7930 0.0000
vt 0.3525 0.7930 0.0000
vt 0.3525 0.8074 0.0000
vt 0.0638 0.8074 0.0000
vt 0.9918 0.6368 0.0000
vt 0.0103 0.6368 0.0000
vt 0.0103 0.6224 0.0000
vt 0.9918 0.6224 0.0000
vt 0.3525 0.7423 0.0000
vt 0.0638 0.7423 0.0000
vt 0.0638 0.7279 0.0000
vt 0.3525 0.7279 0.0000
vt 0.6824 0.9356 0.0000
vt 0.6824 0.7047 0.0000
vt 0.4514 0.7047 0.0000
vt 0.4514 0.9356 0.0000
vt 0.1069 0.8396 0.0000
vt 0.1069 0.8425 0.0000
vt 0.3377 0.8425 0.0000
vt 0.3377 0.8396 0.0000
vt 0.4494 0.9595 0.0000
vt 0.4494 0.9624 0.0000
vt 0.6803 0.9624 0.0000
vt 0.6803 0.9595 0.0000
vt 0.9710 0.9807 0.0000
vt 0.9710 0.9778 0.0000
vt 0.7400 0.9778 0.0000
vt 0.7400 0.9807 0.0000
vt 0.9730 0.9600 0.0000
vt 0.9730 0.9571 0.0000
vt 0.7421 0.9571 0.0000
vt 0.7421 0.9600 0.0000
# 40 texture coords

g MicroscopeSlide03
s 1
f 1/1/1 2/2/1 3/3/1 4/4/1 
s 2
f 5/5/2 6/6/2 3/7/2 2/8/2 
s 4
f 7/9/3 5/10/3 2/11/3 1/12/3 
s 2
f 8/13/4 7/14/4 1/15/4 4/16/4 
s 4
f 6/17/5 8/18/5 4/19/5 3/20/5 
s 1
f 9/21/6 10/22/6 11/23/6 12/24/6 
s 2
f 13/25/7 12/26/7 11/27/7 14/28/7 
s 4
f 15/29/8 9/30/8 12/31/8 13/32/8 
s 2
f 16/33/9 10/34/9 9/35/9 15/36/9 
s 4
f 14/37/10 11/38/10 10/39/10 16/40/10 
s 1
f 5/10/6 7/9/6 15/29/6 13/32/6 
f 7/14/6 8/13/6 16/33/6 15/36/6 
f 8/18/6 6/17/6 14/37/6 16/40/6 
f 6/6/6 5/5/6 13/25/6 14/28/6 
# 14 polygons

