# 3ds Max Wavefront OBJ Exporter v0.97b - (c)2007 guruware
# File Created: 05.12.2017 11:02:29

#
# object MicroscopeSlide01
#

v  5.9500 0.0000 -1.7500
v  5.9500 0.0000 1.7500
v  -5.9500 0.0000 1.7500
v  -5.9500 0.0000 -1.7500
v  5.9500 0.1750 -1.7500
v  -5.9500 0.1750 -1.7500
v  -5.9500 0.1750 1.7500
v  5.9500 0.1750 1.7500
# 8 vertices

vn 0.0000 -1.0000 -0.0000
vn 0.0000 1.0000 -0.0000
vn 0.0000 0.0000 1.0000
vn 1.0000 0.0000 -0.0000
vn 0.0000 0.0000 -1.0000
vn -1.0000 0.0000 -0.0000
# 6 vertex normals

vt 0.0067 0.5983 0.0000
vt 0.0067 0.3096 0.0000
vt 0.9881 0.3096 0.0000
vt 0.9881 0.5983 0.0000
vt 0.0041 0.0041 0.0000
vt 0.9855 0.0041 0.0000
vt 0.9855 0.2928 0.0000
vt 0.0041 0.2928 0.0000
vt 0.0144 0.6648 0.0000
vt 0.9958 0.6648 0.0000
vt 0.9958 0.6793 0.0000
vt 0.0144 0.6793 0.0000
vt 0.0638 0.7930 0.0000
vt 0.3525 0.7930 0.0000
vt 0.3525 0.8074 0.0000
vt 0.0638 0.8074 0.0000
vt 0.9918 0.6368 0.0000
vt 0.0103 0.6368 0.0000
vt 0.0103 0.6224 0.0000
vt 0.9918 0.6224 0.0000
vt 0.3525 0.7423 0.0000
vt 0.0638 0.7423 0.0000
vt 0.0638 0.7279 0.0000
vt 0.3525 0.7279 0.0000
# 24 texture coords

g MicroscopeSlide01
s 2
f 1/1/1 2/2/1 3/3/1 4/4/1 
s 4
f 5/5/2 6/6/2 7/7/2 8/8/2 
s 8
f 8/9/3 7/10/3 3/11/3 2/12/3 
s 16
f 5/13/4 8/14/4 2/15/4 1/16/4 
s 32
f 6/17/5 5/18/5 1/19/5 4/20/5 
s 64
f 7/21/6 6/22/6 4/23/6 3/24/6 
# 6 polygons

